<svg width="112" height="112" viewBox="0 0 112 112" fill="none" xmlns="http://www.w3.org/2000/svg">
<path id="Vector" d="M112 55.944C112 25.06 86.912 0 56 0C25.088 0 0 25.06 0 55.944C0 72.954 7.728 88.284 19.824 98.574C19.936 98.686 20.048 98.686 20.048 98.798C21.056 99.582 22.064 100.366 23.184 101.15C23.744 101.486 24.192 101.927 24.752 102.375C34.0065 108.65 44.931 112.003 56.112 112C67.293 112.003 78.2175 108.65 87.472 102.375C88.032 102.039 88.48 101.598 89.04 101.255C90.048 100.478 91.168 99.694 92.176 98.91C92.288 98.798 92.4 98.798 92.4 98.686C104.272 88.277 112 72.954 112 55.944ZM56 104.951C45.472 104.951 35.84 101.591 27.888 95.998C28 95.102 28.224 94.213 28.448 93.317C29.1154 90.8887 30.0942 88.557 31.36 86.38C32.592 84.252 34.048 82.348 35.84 80.668C37.52 78.988 39.536 77.427 41.552 76.195C43.68 74.963 45.92 74.067 48.384 73.395C50.8672 72.7257 53.4282 72.3891 56 72.394C63.6346 72.3399 70.9886 75.2685 76.496 80.556C79.072 83.132 81.088 86.156 82.544 89.621C83.328 91.637 83.888 93.765 84.224 95.998C75.9582 101.809 66.104 104.935 56 104.951ZM38.864 53.151C37.8772 50.8915 37.3809 48.4484 37.408 45.983C37.408 43.526 37.856 41.062 38.864 38.822C39.872 36.582 41.216 34.573 42.896 32.893C44.576 31.213 46.592 29.876 48.832 28.868C51.072 27.86 53.536 27.412 56 27.412C58.576 27.412 60.928 27.86 63.168 28.868C65.408 29.876 67.424 31.22 69.104 32.893C70.784 34.573 72.128 36.589 73.136 38.822C74.144 41.062 74.592 43.526 74.592 45.983C74.592 48.559 74.144 50.911 73.136 53.144C72.1632 55.3509 70.7969 57.3623 69.104 59.08C67.3857 60.7704 65.3743 62.1343 63.168 63.105C58.5398 65.007 53.3482 65.007 48.72 63.105C46.5137 62.1343 44.5023 60.7704 42.784 59.08C41.0887 57.3873 39.7551 55.3748 38.864 53.151ZM90.832 90.293C90.832 90.069 90.72 89.957 90.72 89.733C89.6185 86.2289 87.9949 82.911 85.904 79.891C83.8112 76.8487 81.2392 74.1656 78.288 71.946C76.0342 70.2505 73.5912 68.8222 71.008 67.69C72.1832 66.9147 73.272 66.0159 74.256 65.009C75.9258 63.3605 77.3922 61.5181 78.624 59.521C81.1045 55.4457 82.3855 50.7534 82.32 45.983C82.3546 42.4516 81.6687 38.9502 80.304 35.693C78.9566 32.5545 77.0173 29.7049 74.592 27.3C72.1703 24.9202 69.3202 23.0201 66.192 21.7C62.9293 20.3378 59.4234 19.6542 55.888 19.691C52.3521 19.6564 48.8462 20.3424 45.584 21.707C42.4288 23.0243 39.5718 24.9647 37.184 27.412C34.8043 29.8311 32.9042 32.6789 31.584 35.805C30.2193 39.0622 29.5334 42.5636 29.568 46.095C29.568 48.559 29.904 50.911 30.576 53.144C31.248 55.496 32.144 57.624 33.376 59.633C34.496 61.649 36.064 63.441 37.744 65.121C38.752 66.129 39.872 67.018 41.104 67.802C38.5128 68.9644 36.069 70.4307 33.824 72.17C30.912 74.41 28.336 77.091 26.208 80.003C24.0958 83.0104 22.4706 86.3318 21.392 89.845C21.28 90.069 21.28 90.293 21.28 90.405C12.432 81.452 6.944 69.37 6.944 55.944C6.944 28.98 29.008 6.937 56 6.937C82.992 6.937 105.056 28.98 105.056 55.944C105.041 68.8237 99.9272 81.1736 90.832 90.293Z" fill="#164A41"/>
</svg>
