<svg width="55" height="57" viewBox="0 0 55 57" fill="none" xmlns="http://www.w3.org/2000/svg">
<path id="Vector" d="M55 28.3913C55 12.7178 42.68 0 27.5 0C12.32 0 0 12.7178 0 28.3913C0 37.0238 3.795 44.8037 9.735 50.0258C9.79 50.0827 9.845 50.0827 9.845 50.1395C10.34 50.5374 10.835 50.9353 11.385 51.3331C11.66 51.5037 11.88 51.7275 12.155 51.9548C16.6996 55.1391 22.0643 56.8407 27.555 56.8395C33.0457 56.8407 38.4104 55.1391 42.955 51.9548C43.23 51.7843 43.45 51.5605 43.725 51.3864C44.22 50.9921 44.77 50.5942 45.265 50.1964C45.32 50.1395 45.375 50.1395 45.375 50.0827C51.205 44.8002 55 37.0238 55 28.3913ZM27.5 53.2621C22.33 53.2621 17.6 51.5569 13.695 48.7185C13.75 48.2638 13.86 47.8126 13.97 47.3579C14.2977 46.1256 14.7784 44.9423 15.4 43.8374C16.005 42.7575 16.72 41.7912 17.6 40.9386C18.425 40.086 19.415 39.2938 20.405 38.6686C21.45 38.0434 22.55 37.5886 23.76 37.2476C24.9794 36.9079 26.2371 36.7371 27.5 36.7396C31.2491 36.7122 34.8605 38.1984 37.565 40.8818C38.83 42.1891 39.82 43.7238 40.535 45.4822C40.92 46.5053 41.195 47.5853 41.36 48.7185C37.3009 51.6676 32.4618 53.254 27.5 53.2621ZM19.085 26.9739C18.6004 25.8272 18.3567 24.5873 18.37 23.3362C18.37 22.0892 18.59 20.8388 19.085 19.702C19.58 18.5652 20.24 17.5456 21.065 16.693C21.89 15.8404 22.88 15.1619 23.98 14.6504C25.08 14.1388 26.29 13.9115 27.5 13.9115C28.765 13.9115 29.92 14.1388 31.02 14.6504C32.12 15.1619 33.11 15.844 33.935 16.693C34.76 17.5456 35.42 18.5687 35.915 19.702C36.41 20.8388 36.63 22.0892 36.63 23.3362C36.63 24.6435 36.41 25.8371 35.915 26.9703C35.4373 28.0903 34.7664 29.1111 33.935 29.9828C33.0912 30.8407 32.1035 31.5329 31.02 32.0255C28.7472 32.9907 26.1978 32.9907 23.925 32.0255C22.8415 31.5329 21.8538 30.8407 21.01 29.9828C20.1775 29.1238 19.5226 28.1024 19.085 26.9739ZM44.605 45.8233C44.605 45.7096 44.55 45.6527 44.55 45.5391C44.0091 43.7608 43.2118 42.0769 42.185 40.5443C41.1573 39.0003 39.8942 37.6387 38.445 36.5123C37.3382 35.6518 36.1385 34.927 34.87 34.3524C35.4471 33.9589 35.9818 33.5028 36.465 32.9918C37.285 32.1552 38.0051 31.2201 38.61 30.2066C39.8281 28.1384 40.4572 25.7571 40.425 23.3362C40.442 21.544 40.1051 19.7671 39.435 18.114C38.7734 16.5212 37.821 15.0751 36.63 13.8546C35.4408 12.6469 34.0411 11.6826 32.505 11.0126C30.9028 10.3213 29.1812 9.97441 27.445 9.99309C25.7086 9.97554 23.987 10.3236 22.385 11.0162C20.8356 11.6847 19.4326 12.6695 18.26 13.9115C17.0914 15.1391 16.1583 16.5844 15.51 18.1709C14.8399 19.8239 14.503 21.6008 14.52 23.393C14.52 24.6435 14.685 25.8371 15.015 26.9703C15.345 28.164 15.785 29.2439 16.39 30.2635C16.94 31.2866 17.71 32.196 18.535 33.0486C19.03 33.5602 19.58 34.0113 20.185 34.4092C18.9126 34.9991 17.7125 35.7433 16.61 36.6259C15.18 37.7627 13.915 39.1233 12.87 40.6011C11.8328 42.1274 11.0346 43.813 10.505 45.5959C10.45 45.7096 10.45 45.8233 10.45 45.8801C6.105 41.3365 3.41 35.2049 3.41 28.3913C3.41 14.7072 14.245 3.52049 27.5 3.52049C40.755 3.52049 51.59 14.7072 51.59 28.3913C51.5828 34.9277 49.0714 41.1952 44.605 45.8233Z" fill="white"/>
</svg>
