<svg width="32" height="40" viewBox="0 0 32 40" fill="none" xmlns="http://www.w3.org/2000/svg">
<path d="M8 29C7.60444 29 7.21776 29.1173 6.88886 29.3371C6.55996 29.5568 6.30362 29.8692 6.15224 30.2346C6.00087 30.6001 5.96126 31.0022 6.03843 31.3902C6.1156 31.7781 6.30608 32.1345 6.58579 32.4142C6.86549 32.6939 7.22186 32.8844 7.60982 32.9616C7.99778 33.0387 8.39992 32.9991 8.76537 32.8478C9.13082 32.6964 9.44318 32.44 9.66294 32.1111C9.8827 31.7822 10 31.3956 10 31C10 30.4696 9.78929 29.9609 9.41421 29.5858C9.03914 29.2107 8.53043 29 8 29ZM16 0C8 0 0 2.74 0 8V32C0 37.26 8 40 16 40C24 40 32 37.26 32 32V8C32 2.74 24 0 16 0ZM28 32C28 33.42 23.44 36 16 36C8.56 36 4 33.42 4 32V25.46C7.74414 27.2399 11.8558 28.1102 16 28C20.1442 28.1102 24.2559 27.2399 28 25.46V32ZM28 20C28 21.42 23.44 24 16 24C8.56 24 4 21.42 4 20V13.46C7.74414 15.2399 11.8558 16.1102 16 16C20.1442 16.1102 24.2559 15.2399 28 13.46V20ZM16 12C8.56 12 4 9.42 4 8C4 6.58 8.56 4 16 4C23.44 4 28 6.58 28 8C28 9.42 23.44 12 16 12ZM8 17C7.60444 17 7.21776 17.1173 6.88886 17.3371C6.55996 17.5568 6.30362 17.8692 6.15224 18.2346C6.00087 18.6001 5.96126 19.0022 6.03843 19.3902C6.1156 19.7781 6.30608 20.1345 6.58579 20.4142C6.86549 20.6939 7.22186 20.8844 7.60982 20.9616C7.99778 21.0387 8.39992 20.9991 8.76537 20.8478C9.13082 20.6964 9.44318 20.44 9.66294 20.1111C9.8827 19.7822 10 19.3956 10 19C10 18.4696 9.78929 17.9609 9.41421 17.5858C9.03914 17.2107 8.53043 17 8 17Z" fill="#9DC88D"/>
</svg>
