<svg width="40" height="40" viewBox="0 0 40 40" fill="none" xmlns="http://www.w3.org/2000/svg">
<g id="uil:database">
<path id="Vector" d="M12 29C11.6044 29 11.2178 29.1173 10.8889 29.3371C10.56 29.5568 10.3036 29.8692 10.1522 30.2346C10.0009 30.6001 9.96126 31.0022 10.0384 31.3902C10.1156 31.7781 10.3061 32.1345 10.5858 32.4142C10.8655 32.6939 11.2219 32.8844 11.6098 32.9616C11.9978 33.0387 12.3999 32.9991 12.7654 32.8478C13.1308 32.6964 13.4432 32.44 13.6629 32.1111C13.8827 31.7822 14 31.3956 14 31C14 30.4696 13.7893 29.9609 13.4142 29.5858C13.0391 29.2107 12.5304 29 12 29ZM20 0C12 0 4 2.74 4 8V32C4 37.26 12 40 20 40C28 40 36 37.26 36 32V8C36 2.74 28 0 20 0ZM32 32C32 33.42 27.44 36 20 36C12.56 36 8 33.42 8 32V25.46C11.7441 27.2399 15.8558 28.1102 20 28C24.1442 28.1102 28.2559 27.2399 32 25.46V32ZM32 20C32 21.42 27.44 24 20 24C12.56 24 8 21.42 8 20V13.46C11.7441 15.2399 15.8558 16.1102 20 16C24.1442 16.1102 28.2559 15.2399 32 13.46V20ZM20 12C12.56 12 8 9.42 8 8C8 6.58 12.56 4 20 4C27.44 4 32 6.58 32 8C32 9.42 27.44 12 20 12ZM12 17C11.6044 17 11.2178 17.1173 10.8889 17.3371C10.56 17.5568 10.3036 17.8692 10.1522 18.2346C10.0009 18.6001 9.96126 19.0022 10.0384 19.3902C10.1156 19.7781 10.3061 20.1345 10.5858 20.4142C10.8655 20.6939 11.2219 20.8844 11.6098 20.9616C11.9978 21.0387 12.3999 20.9991 12.7654 20.8478C13.1308 20.6964 13.4432 20.44 13.6629 20.1111C13.8827 19.7822 14 19.3956 14 19C14 18.4696 13.7893 17.9609 13.4142 17.5858C13.0391 17.2107 12.5304 17 12 17Z" fill="#9DC88D"/>
</g>
</svg>
