<svg width="36" height="36" viewBox="0 0 36 36" fill="none" xmlns="http://www.w3.org/2000/svg">
<path d="M28.2658 11.8125C28.0598 14.6721 25.9385 16.875 23.6252 16.875C21.3119 16.875 19.187 14.6728 18.9845 11.8125C18.7736 8.83758 20.8387 6.75 23.6252 6.75C26.4117 6.75 28.4767 8.89172 28.2658 11.8125Z" stroke="#164A41" stroke-width="2.25" stroke-linecap="round" stroke-linejoin="round"/>
<path d="M23.6252 21.375C19.0429 21.375 14.6365 23.651 13.5326 28.0835C13.3863 28.6699 13.754 29.25 14.3566 29.25H32.8945C33.4971 29.25 33.8627 28.6699 33.7186 28.0835C32.6147 23.58 28.2082 21.375 23.6252 21.375Z" stroke="#164A41" stroke-width="2.25" stroke-miterlimit="10"/>
<path d="M14.0624 13.0739C13.8979 15.3577 12.1837 17.1562 10.3359 17.1562C8.48806 17.1562 6.77103 15.3584 6.60931 13.0739C6.44127 10.698 8.10978 9 10.3359 9C12.562 9 14.2305 10.7416 14.0624 13.0739Z" stroke="#164A41" stroke-width="2.25" stroke-linecap="round" stroke-linejoin="round"/>
<path d="M14.4846 21.5155C13.2154 20.934 11.8176 20.7104 10.3361 20.7104C6.67989 20.7104 3.15723 22.528 2.27481 26.0683C2.15879 26.5365 2.4527 26.9999 2.93364 26.9999H10.8283" stroke="#164A41" stroke-width="2.25" stroke-miterlimit="10" stroke-linecap="round"/>
</svg>
