<svg width="68" height="68" viewBox="0 0 68 68" fill="none" xmlns="http://www.w3.org/2000/svg">
<g id="mdi:cloud-outline">
<path id="Vector" d="M12.375 52C8.955 52 6.0375 50.8225 3.6225 48.4675C1.2075 46.0975 0 43.21 0 39.805C0 36.88 0.8775 34.27 2.6325 31.975C4.4025 29.68 6.7125 28.2175 9.5625 27.5875C10.5075 24.1375 12.3825 21.3475 15.1875 19.2175C18.0075 17.0725 21.195 16 24.75 16C29.145 16 32.865 17.53 35.91 20.59C38.97 23.635 40.5 27.355 40.5 31.75C43.095 32.05 45.24 33.175 46.935 35.125C48.645 37.045 49.5 39.295 49.5 41.875C49.5 44.695 48.5175 47.0875 46.5525 49.0525C44.5875 51.0175 42.195 52 39.375 52M12.375 47.5H39.375C40.95 47.5 42.2775 46.9525 43.3575 45.8575C44.4525 44.7775 45 43.45 45 41.875C45 40.3 44.4525 38.9725 43.3575 37.8925C42.2775 36.7975 40.95 36.25 39.375 36.25H36V31.75C36 28.645 34.905 25.99 32.715 23.785C30.525 21.595 27.87 20.5 24.75 20.5C21.645 20.5 18.99 21.595 16.785 23.785C14.595 25.99 13.5 28.645 13.5 31.75H12.375C10.2 31.75 8.3475 32.5225 6.8175 34.0675C5.2725 35.5975 4.5 37.45 4.5 39.625C4.5 41.8 5.2725 43.675 6.8175 45.25C8.3475 46.75 10.2 47.5 12.375 47.5Z" fill="#9DC88D"/>
</g>
</svg>
