<svg width="48" height="48" viewBox="0 0 48 48" fill="none" xmlns="http://www.w3.org/2000/svg">
<g id="Icon" clip-path="url(#clip0_267_354)">
<path id="Vector" d="M6 42H14L40 16C41.0609 14.9391 41.6569 13.5003 41.6569 12C41.6569 10.4997 41.0609 9.06086 40 7.99999C38.9391 6.93913 37.5003 6.34314 36 6.34314C34.4997 6.34314 33.0609 6.93913 32 7.99999L6 34V42Z" stroke="#9DC88D" stroke-width="3" stroke-linecap="round" stroke-linejoin="round"/>
<path id="Vector_2" d="M29 11L37 19" stroke="#9DC88D" stroke-width="3" stroke-linecap="round" stroke-linejoin="round"/>
<path id="Vector_3" d="M24 16L14 6L6 14L16 24" stroke="#9DC88D" stroke-width="3" stroke-linecap="round" stroke-linejoin="round"/>
<path id="Vector_4" d="M14 16L11 19" stroke="#9DC88D" stroke-width="3" stroke-linecap="round" stroke-linejoin="round"/>
<path id="Vector_5" d="M32 24L42 34L34 42L24 32" stroke="#9DC88D" stroke-width="3" stroke-linecap="round" stroke-linejoin="round"/>
<path id="Vector_6" d="M32 34L29 37" stroke="#9DC88D" stroke-width="3" stroke-linecap="round" stroke-linejoin="round"/>
</g>
<defs>
<clipPath id="clip0_267_354">
<rect width="48" height="48" fill="white"/>
</clipPath>
</defs>
</svg>
