<svg width="42" height="44" viewBox="0 0 42 44" fill="none" xmlns="http://www.w3.org/2000/svg">
<path id="Vector" d="M38.6242 0H3.37575C1.512 0 0 1.56257 0 3.48865V39.916C0 41.8421 1.512 43.4047 3.37575 43.4047H38.6242C40.488 43.4047 42 41.8421 42 39.916V3.48865C42 1.56257 40.488 0 38.6242 0ZM38.6242 39.9323C15.1148 39.9269 3.36 39.9215 3.36 39.916C3.36525 15.6203 3.3705 3.47237 3.37575 3.47237C26.8852 3.4778 38.64 3.48323 38.64 3.48865C38.6348 27.7844 38.6295 39.9323 38.6242 39.9323ZM6.2265 16.2713H12.4582V36.9862H6.2265V16.2713ZM9.345 13.4392C11.3348 13.4392 12.957 11.7681 12.957 9.70637C12.957 9.21617 12.8636 8.73077 12.6821 8.27789C12.5005 7.82501 12.2345 7.41351 11.8991 7.06688C11.5637 6.72026 11.1655 6.4453 10.7273 6.25771C10.289 6.07012 9.81933 5.97357 9.345 5.97357C8.87067 5.97357 8.40098 6.07012 7.96275 6.25771C7.52452 6.4453 7.12634 6.72026 6.79093 7.06688C6.45553 7.41351 6.18947 7.82501 6.00795 8.27789C5.82643 8.73077 5.733 9.21617 5.733 9.70637C5.72775 11.7681 7.34475 13.4392 9.345 13.4392ZM22.5907 26.7373C22.5907 24.0353 23.0895 21.4202 26.3287 21.4202C29.5207 21.4202 29.568 24.5074 29.568 26.9109V36.9862H35.7945V25.625C35.7945 20.0475 34.629 15.7559 28.3237 15.7559C25.2945 15.7559 23.2628 17.4758 22.428 19.1035H22.344V16.2713H16.3643V36.9862H22.5907V26.7373Z" fill="white" fill-opacity="0.87"/>
</svg>
