<svg width="36" height="36" viewBox="0 0 36 36" fill="none" xmlns="http://www.w3.org/2000/svg">
<path d="M11.25 3.75H24.75V9.75H33V16.5H30V12.75H6V29.25H16.5V32.25H3V9.75H11.25V3.75ZM14.25 9.75H21.75V6.75H14.25V9.75ZM27 21.75C25.6076 21.75 24.2723 22.3031 23.2877 23.2877C22.3031 24.2723 21.75 25.6076 21.75 27C21.75 28.3924 22.3031 29.7277 23.2877 30.7123C24.2723 31.6969 25.6076 32.25 27 32.25C28.3924 32.25 29.7277 31.6969 30.7123 30.7123C31.6969 29.7277 32.25 28.3924 32.25 27C32.25 25.6076 31.6969 24.2723 30.7123 23.2877C29.7277 22.3031 28.3924 21.75 27 21.75ZM18.75 27C18.75 25.9166 18.9634 24.8438 19.378 23.8429C19.7926 22.8419 20.4003 21.9325 21.1664 21.1664C21.9325 20.4003 22.8419 19.7926 23.8429 19.378C24.8438 18.9634 25.9166 18.75 27 18.75C28.0834 18.75 29.1562 18.9634 30.1571 19.378C31.1581 19.7926 32.0675 20.4003 32.8336 21.1664C33.5997 21.9325 34.2074 22.8419 34.622 23.8429C35.0366 24.8438 35.25 25.9166 35.25 27C35.25 29.188 34.3808 31.2865 32.8336 32.8336C31.2865 34.3808 29.188 35.25 27 35.25C24.812 35.25 22.7135 34.3808 21.1664 32.8336C19.6192 31.2865 18.75 29.188 18.75 27ZM28.5 23.628V26.379L30.621 28.5L28.5 30.621L25.5 27.621V23.628H28.5Z" fill="#164A41"/>
</svg>
