<svg width="123" height="123" viewBox="0 0 123 123" fill="none" xmlns="http://www.w3.org/2000/svg">
<g id="carbon:play-filled">
<g id="Ellipse 1" filter="url(#filter0_f_35_224)">
<circle cx="56.4673" cy="56.4673" r="56.4673" transform="matrix(-1 0 0 1 117.963 5.02808)" fill="#9DC88D"/>
</g>
<path id="Vector" d="M61 14.625C51.8279 14.625 42.8618 17.3448 35.2354 22.4406C27.6091 27.5363 21.6651 34.7791 18.1551 43.2531C14.6451 51.727 13.7267 61.0514 15.5161 70.0473C17.3055 79.0432 21.7223 87.3064 28.2079 93.7921C34.6936 100.278 42.9568 104.695 51.9527 106.484C60.9486 108.273 70.273 107.355 78.747 103.845C87.2209 100.335 94.4637 94.3909 99.5594 86.7646C104.655 79.1382 107.375 70.1721 107.375 61C107.375 48.7006 102.489 36.9049 93.7921 28.2079C85.0951 19.5109 73.2994 14.625 61 14.625ZM85.6682 63.9647L45.9182 83.8397C45.4131 84.0921 44.8518 84.2112 44.2877 84.1856C43.7235 84.1601 43.1753 83.9908 42.695 83.6937C42.2148 83.3967 41.8184 82.9818 41.5437 82.4884C41.2689 81.9951 41.1248 81.4397 41.125 80.875V41.125C41.1253 40.5606 41.2698 40.0056 41.5449 39.5127C41.8199 39.0198 42.2163 38.6054 42.6965 38.3087C43.1766 38.0121 43.7246 37.843 44.2885 37.8176C44.8523 37.7922 45.4133 37.9113 45.9182 38.1636L85.6682 58.0386C86.2177 58.314 86.6797 58.7369 87.0026 59.2599C87.3255 59.7829 87.4965 60.3854 87.4965 61C87.4965 61.6146 87.3255 62.2171 87.0026 62.7401C86.6797 63.2631 86.2177 63.686 85.6682 63.9614V63.9647Z" fill="black"/>
</g>
<defs>
<filter id="filter0_f_35_224" x="0.0280762" y="0.0280762" width="122.935" height="122.935" filterUnits="userSpaceOnUse" color-interpolation-filters="sRGB">
<feFlood flood-opacity="0" result="BackgroundImageFix"/>
<feBlend mode="normal" in="SourceGraphic" in2="BackgroundImageFix" result="shape"/>
<feGaussianBlur stdDeviation="2.5" result="effect1_foregroundBlur_35_224"/>
</filter>
</defs>
</svg>
