<svg width="36" height="36" viewBox="0 0 36 36" fill="none" xmlns="http://www.w3.org/2000/svg">
<path d="M33.75 5.23804L32.31 5.65991L6.5385 13.5H2.25V22.5H6.53963L8.75362 23.1683L8.71987 23.2729V23.3089C7.99762 25.6849 9.33525 28.3264 11.8136 29.0734C11.8249 29.0768 11.8384 29.07 11.8474 29.0734C14.2358 29.799 16.8795 28.4772 17.6141 25.9797L17.6479 25.8739L32.31 30.3402L33.75 30.7609V5.23804ZM31.5 8.26204V27.738L7.065 20.2838L6.92663 20.25H4.5V15.75H6.9255L7.06612 15.7163L31.5 8.26204ZM10.8979 23.8354L15.5036 25.2079L15.4699 25.3125V25.3463C15.0829 26.6625 13.6856 27.306 12.4819 26.9292C11.1656 26.5433 10.4884 25.1809 10.8641 23.976V23.9423L10.8979 23.8354Z" fill="#164A41"/>
</svg>
