<svg width="27" height="27" viewBox="0 0 27 27" fill="none" xmlns="http://www.w3.org/2000/svg">
<g id="solar:star-bold-duotone">
<path id="Vector" d="M20.7936 18.8629C19.256 19.2321 17.6507 19.2142 16.1216 18.8108C14.5925 18.4074 13.1874 17.6311 12.032 16.5514C10.8765 15.4716 10.0069 14.1222 9.50102 12.6239C8.9951 11.1256 8.86865 9.52527 9.13301 7.96613C9.09281 8.00496 9.05036 8.04139 9.00589 8.07525C8.69089 8.31488 8.29714 8.40375 7.50964 8.5815L6.79526 8.7435C4.02776 9.37013 2.64401 9.68288 2.31439 10.7415C1.98589 11.799 2.92864 12.9026 4.81526 15.1088L5.30351 15.6791C5.83901 16.3058 6.10789 16.6196 6.22826 17.0066C6.34864 17.3948 6.30814 17.8133 6.22714 18.6491L6.15289 19.4108C5.86826 22.3549 5.72539 23.8264 6.58714 24.48C7.44889 25.1348 8.74489 24.5385 11.3346 23.3449L12.0063 23.0366C12.742 22.6969 13.1099 22.5281 13.5003 22.5281C13.8906 22.5281 14.2585 22.6969 14.9954 23.0366L15.6648 23.3449C18.2556 24.5374 19.5516 25.1336 20.4123 24.4811C21.2751 23.8264 21.1323 22.3549 20.8476 19.4108L20.7936 18.8629Z" fill="#E89206"/>
<path id="Vector_2" opacity="0.5" d="M10.297 6.084L9.92803 6.7455C9.52303 7.47225 9.32053 7.83563 9.00553 8.07525C9.05053 8.0415 9.09216 8.0055 9.13266 7.96613C8.86823 9.52538 8.99466 11.1259 9.50064 12.6243C10.0066 14.1227 10.8763 15.4722 12.0319 16.552C13.1875 17.6317 14.5928 18.408 16.122 18.8113C17.6513 19.2146 19.2566 19.2323 20.7944 18.8629L20.7719 18.6491C20.692 17.8132 20.6515 17.3947 20.7719 17.0066C20.8923 16.6196 21.16 16.3057 21.6967 15.6791L22.1849 15.1088C24.0715 12.9038 25.0143 11.8001 24.6847 10.7415C24.3562 9.68288 22.9724 9.369 20.2049 8.7435L19.4894 8.5815C18.703 8.40375 18.3093 8.31488 17.9932 8.07525C17.6782 7.83563 17.4757 7.47225 17.0707 6.7455L16.7028 6.084C15.2774 3.528 14.5653 2.25 13.4999 2.25C12.4345 2.25 11.7224 3.528 10.297 6.084Z" fill="#E89206"/>
</g>
</svg>
