<svg width="42" height="44" viewBox="0 0 42 44" fill="none" xmlns="http://www.w3.org/2000/svg">
<path id="Vector" d="M35.8794 6.31549C33.9444 4.3057 31.6397 2.71219 29.0995 1.62791C26.5594 0.543629 23.8347 -0.00972287 21.0844 0.00012928C9.5608 0.00012928 0.168845 9.65764 0.168845 21.5071C0.168845 25.305 1.1397 28.9944 2.95477 32.2497L0 43.4047L11.0804 40.4098C14.1407 42.1243 17.5809 43.0357 21.0844 43.0357C32.608 43.0357 42 33.3782 42 21.5288C42 15.7777 39.8261 10.3738 35.8794 6.31549ZM21.0844 39.3898C17.9608 39.3898 14.9005 38.5217 12.2201 36.894L11.5869 36.5034L5.00201 38.2829L6.75377 31.6855L6.33166 31.0127C4.59625 28.1631 3.67477 24.8693 3.67236 21.5071C3.67236 11.6543 11.4814 3.62441 21.0633 3.62441C25.7065 3.62441 30.0754 5.49081 33.3467 8.87636C34.9665 10.5343 36.2502 12.5064 37.1233 14.6783C37.9965 16.8502 38.4417 19.1787 38.4332 21.5288C38.4754 31.3816 30.6663 39.3898 21.0844 39.3898ZM30.6241 26.0212C30.0965 25.7607 27.5216 24.4586 27.0573 24.2633C26.5719 24.0897 26.2342 24.0028 25.8754 24.5237C25.5166 25.0663 24.5246 26.2816 24.2291 26.6288C23.9337 26.9978 23.6171 27.0412 23.0894 26.759C22.5618 26.4986 20.8734 25.9126 18.8894 24.0897C17.3276 22.6573 16.2935 20.8994 15.9769 20.3569C15.6814 19.8143 15.9347 19.5322 16.209 19.25C16.4412 19.0113 16.7367 18.6207 16.9899 18.3169C17.2432 18.013 17.3487 17.7743 17.5176 17.4271C17.6864 17.0581 17.602 16.7543 17.4754 16.4939C17.3487 16.2334 16.2935 13.5858 15.8714 12.5006C15.4492 11.4589 15.006 11.5891 14.6894 11.5674H13.6764C13.3176 11.5674 12.7688 11.6977 12.2834 12.2402C11.8191 12.7828 10.4683 14.0849 10.4683 16.7326C10.4683 19.3803 12.3467 21.9411 12.6 22.2884C12.8533 22.6573 16.2935 28.0829 21.5276 30.405C22.7729 30.9693 23.7437 31.2948 24.5035 31.5335C25.7487 31.9459 26.8884 31.8808 27.796 31.7506C28.809 31.5986 30.8985 30.4484 31.3206 29.1897C31.7638 27.931 31.7638 26.8675 31.6161 26.6288C31.4683 26.3901 31.1518 26.2816 30.6241 26.0212Z" fill="white" fill-opacity="0.87"/>
</svg>
